<svg xmlns="http://www.w3.org/2000/svg" viewBox="-6.00 -6.00 212.00 54.87" width="212.00mm" height="54.87mm">

<path d="M6.12,33.05 L6.12,33.11 L6.09,33.23 L6.02,33.31 L5.91,33.37 L5.85,33.39 L3.16,33.39 L3.11,33.37 L3.03,33.30 L3.00,33.25 L2.97,33.14 L2.96,33.03 L2.96,18.58 L2.96,18.46 L2.92,18.24 L2.86,18.05 L2.76,17.89 L2.70,17.82 L2.63,17.75 L2.48,17.63 L2.31,17.52 L2.13,17.44 L2.03,17.40 L1.82,17.33 L1.39,17.21 L1.16,17.17 L0.70,17.06 L0.26,16.95 L0.15,16.90 L0.07,16.84 L0.04,16.80 L0.00,16.65 L0.00,16.54 L0.00,16.49 L0.03,16.39 L0.06,16.34 L0.10,16.29 L0.22,16.19 L0.31,16.14 L5.48,13.70 L5.56,13.66 L5.65,13.62 L5.73,13.59 L5.78,13.58 L5.86,13.59 L5.99,13.65 L6.08,13.77 L6.12,13.95 L6.12,14.07 L6.12,20.54 L6.17,20.68 L6.26,20.91 L6.37,21.09 L6.49,21.20 L6.55,21.23 L6.69,21.28 L6.95,21.33 L7.08,21.34 L14.69,15.04 L14.92,14.87 L15.14,14.72 L15.26,14.66 L15.52,14.58 L15.67,14.57 L17.17,14.57 L17.25,14.58 L17.47,14.63 L17.60,14.68 L17.67,14.71 L17.77,14.78 L17.84,14.87 L17.88,14.98 L17.88,15.04 L17.88,15.11 L17.86,15.25 L17.84,15.32 L17.81,15.38 L17.72,15.55 L17.65,15.64 L17.58,15.74 L17.36,15.98 L17.22,16.11 L16.87,16.42 L16.42,16.81 L9.15,22.89 L9.16,22.98 L9.23,23.16 L9.29,23.25 L9.43,23.42 L9.53,23.54 L17.88,31.32 L18.10,31.55 L18.47,31.92 L18.62,32.06 L18.88,32.29 L19.06,32.47 L19.13,32.54 L19.24,32.67 L19.28,32.72 L19.31,32.78 L19.34,32.93 L19.34,33.03 L19.33,33.13 L19.30,33.26 L19.28,33.29 L19.24,33.34 L19.12,33.38 L19.02,33.39 L16.01,33.39 L15.93,33.38 L15.77,33.33 L15.69,33.28 L15.61,33.22 L15.47,33.10 L15.41,33.03 L15.16,32.76 L14.58,32.19 L14.26,31.90 L13.90,31.58 L13.12,30.80 L12.68,30.34 L6.41,24.73 L6.41,24.70 L6.39,24.68 L6.37,24.68 L6.34,24.69 L6.29,24.72 L6.22,24.85 L6.18,24.99 L6.16,25.14 L6.13,25.49 L6.12,25.67 L6.12,33.05 L6.12,33.05 Z M22.47,23.47 L22.47,23.22 L22.50,22.73 L22.55,22.26 L22.64,21.79 L22.75,21.34 L22.89,20.90 L23.05,20.46 L23.25,20.04 L23.36,19.84 L23.47,19.63 L23.71,19.23 L23.97,18.85 L24.24,18.48 L24.53,18.13 L24.84,17.79 L25.16,17.47 L25.50,17.16 L25.68,17.01 L26.04,16.72 L26.80,16.20 L27.60,15.75 L28.44,15.36 L28.87,15.19 L29.31,15.03 L30.18,14.79 L31.06,14.63 L31.93,14.55 L32.37,14.54 L32.65,14.54 L33.20,14.56 L33.73,14.61 L34.26,14.68 L34.51,14.73 L34.77,14.78 L35.27,14.92 L35.76,15.09 L36.24,15.30 L36.47,15.42 L36.70,15.55 L37.16,15.84 L37.60,16.18 L38.03,16.57 L38.24,16.78 L38.45,17.00 L38.86,17.49 L39.26,18.04 L39.65,18.65 L39.84,18.98 L39.87,18.77 L39.95,18.29 L40.01,18.02 L40.15,17.43 L40.31,16.82 L40.47,16.20 L40.62,15.60 L40.76,15.04 L40.87,14.54 L43.90,14.54 L43.67,15.10 L43.22,16.26 L43.00,16.85 L42.78,17.45 L42.40,18.66 L42.22,19.26 L42.05,19.87 L41.78,21.10 L41.67,21.72 L41.62,22.03 L41.54,22.64 L41.49,23.24 L41.47,23.84 L41.46,24.14 L41.47,24.43 L41.50,25.01 L41.56,25.59 L41.66,26.17 L41.72,26.46 L41.78,26.74 L41.94,27.30 L42.13,27.84 L42.35,28.37 L42.48,28.62 L42.61,28.87 L42.89,29.36 L43.21,29.83 L43.57,30.28 L43.76,30.50 L43.95,30.71 L44.37,31.11 L44.82,31.48 L45.29,31.81 L45.54,31.97 L43.80,34.06 L43.47,33.83 L42.85,33.36 L42.56,33.12 L42.00,32.62 L41.48,32.13 L41.24,31.89 L40.85,31.47 L40.71,31.29 L40.65,31.21 L40.52,31.09 L40.38,31.00 L40.23,30.96 L40.15,30.96 L40.05,30.96 L39.87,31.00 L39.78,31.03 L39.68,31.07 L39.44,31.20 L39.30,31.29 L38.97,31.51 L38.55,31.80 L38.03,32.16 L37.39,32.60 L37.25,32.69 L36.95,32.87 L36.62,33.03 L36.27,33.18 L36.09,33.25 L35.71,33.37 L34.93,33.59 L34.53,33.68 L34.13,33.75 L33.33,33.87 L32.94,33.91 L32.55,33.94 L31.83,33.98 L31.50,33.98 L31.20,33.98 L30.61,33.96 L30.04,33.91 L29.50,33.84 L28.98,33.75 L28.48,33.64 L28.01,33.50 L27.57,33.34 L27.35,33.25 L27.14,33.16 L26.74,32.96 L26.35,32.73 L25.99,32.49 L25.64,32.22 L25.31,31.94 L25.00,31.63 L24.71,31.31 L24.58,31.14 L24.45,30.96 L24.20,30.61 L23.97,30.23 L23.75,29.84 L23.56,29.43 L23.38,29.00 L23.21,28.56 L23.06,28.10 L22.87,27.37 L22.67,26.34 L22.54,25.24 L22.47,24.08 L22.47,23.47 Z M25.45,24.12 L25.45,24.34 L25.48,24.81 L25.55,25.28 L25.64,25.76 L25.70,26.00 L25.77,26.24 L25.92,26.73 L26.10,27.21 L26.31,27.68 L26.42,27.92 L26.54,28.16 L26.80,28.61 L27.08,29.06 L27.38,29.50 L27.54,29.71 L27.70,29.91 L28.05,30.31 L28.42,30.67 L28.80,31.02 L29.01,31.18 L29.21,31.33 L29.64,31.61 L30.09,31.86 L30.55,32.08 L30.79,32.18 L31.03,32.27 L31.52,32.41 L32.02,32.51 L32.54,32.55 L32.80,32.56 L32.98,32.56 L33.35,32.53 L33.71,32.47 L34.08,32.38 L34.27,32.32 L34.45,32.25 L34.81,32.10 L35.17,31.90 L35.51,31.68 L35.68,31.55 L35.84,31.42 L36.17,31.12 L36.47,30.78 L36.76,30.40 L36.90,30.20 L37.03,29.99 L37.28,29.53 L37.50,29.02 L37.70,28.47 L37.79,28.18 L37.94,27.60 L38.18,26.45 L38.35,25.28 L38.43,24.11 L38.44,23.52 L38.38,23.15 L38.23,22.42 L38.01,21.72 L37.74,21.06 L37.57,20.74 L37.40,20.43 L37.02,19.83 L36.61,19.28 L36.16,18.78 L35.92,18.54 L35.68,18.32 L35.17,17.91 L34.63,17.55 L34.07,17.25 L33.78,17.11 L33.49,17.00 L32.91,16.81 L32.33,16.68 L31.75,16.62 L31.46,16.61 L31.18,16.61 L30.64,16.67 L30.10,16.78 L29.56,16.94 L29.29,17.04 L29.02,17.15 L28.51,17.42 L28.03,17.76 L27.57,18.15 L27.36,18.37 L27.15,18.61 L26.76,19.13 L26.42,19.71 L26.11,20.36 L25.97,20.71 L25.91,20.89 L25.79,21.26 L25.65,21.85 L25.52,22.70 L25.46,23.63 L25.45,24.12 Z M58.59,31.08 L58.46,31.30 L58.15,31.71 L57.80,32.08 L57.42,32.40 L57.20,32.55 L56.99,32.68 L56.54,32.93 L56.08,33.15 L55.60,33.33 L55.35,33.41 L55.11,33.48 L54.61,33.61 L54.12,33.71 L53.62,33.79 L53.37,33.81 L52.88,33.86 L51.97,33.91 L51.55,33.92 L51.50,33.91 L51.39,33.89 L51.22,33.81 L51.09,33.73 L51.03,33.69 L50.94,33.56 L50.88,33.40 L50.84,33.20 L50.84,33.09 L50.84,19.57 L50.84,19.45 L50.80,19.23 L50.74,19.04 L50.64,18.88 L50.57,18.81 L50.51,18.74 L50.36,18.62 L50.19,18.52 L50.00,18.43 L49.90,18.39 L49.70,18.33 L49.26,18.21 L49.03,18.16 L48.80,18.11 L48.36,18.01 L48.14,17.95 L48.09,17.92 L47.99,17.87 L47.95,17.84 L47.92,17.79 L47.88,17.64 L47.88,17.54 L47.88,17.49 L47.91,17.39 L47.94,17.34 L47.98,17.28 L48.10,17.18 L48.18,17.13 L53.36,14.70 L53.44,14.66 L53.53,14.62 L53.61,14.59 L53.66,14.57 L53.75,14.58 L53.87,14.64 L53.96,14.77 L54.00,14.95 L54.01,15.06 L54.01,31.12 L54.01,31.23 L54.06,31.44 L54.14,31.61 L54.27,31.74 L54.35,31.79 L54.44,31.83 L54.62,31.90 L54.80,31.94 L54.99,31.97 L55.08,31.97 L55.21,31.96 L55.47,31.93 L55.74,31.87 L56.01,31.77 L56.15,31.72 L56.42,31.59 L56.95,31.31 L57.20,31.17 L57.67,30.88 L58.07,30.62 L58.24,30.51 L58.48,30.38 L58.56,30.36 L58.63,30.37 L58.70,30.40 L58.73,30.44 L58.74,30.47 L58.75,30.56 L58.76,30.63 L58.75,30.70 L58.72,30.81 L58.71,30.86 L58.64,31.00 L58.59,31.08 Z M67.83,14.33 L67.91,14.29 L68.00,14.25 L68.08,14.22 L68.14,14.21 L68.22,14.22 L68.35,14.28 L68.43,14.40 L68.47,14.58 L68.48,14.70 L68.48,18.15 L68.48,18.22 L68.49,18.30 L68.50,18.34 L68.56,18.39 L68.60,18.39 L68.65,18.39 L68.73,18.35 L68.76,18.32 L68.82,18.25 L68.88,18.19 L69.27,17.67 L69.71,17.10 L69.94,16.81 L70.43,16.25 L70.68,15.98 L70.94,15.72 L71.48,15.28 L71.75,15.09 L71.88,15.01 L72.15,14.88 L72.42,14.79 L72.69,14.74 L72.82,14.74 L72.92,14.74 L73.13,14.77 L73.49,14.85 L73.77,14.94 L74.07,15.05 L74.64,15.29 L74.92,15.42 L75.19,15.56 L75.67,15.84 L75.88,15.99 L75.97,16.06 L76.12,16.19 L76.22,16.31 L76.27,16.42 L76.27,16.46 L76.26,16.58 L76.17,16.92 L76.09,17.15 L75.99,17.39 L75.76,17.89 L75.63,18.15 L75.49,18.39 L75.20,18.84 L75.04,19.05 L74.96,19.14 L74.81,19.29 L74.67,19.39 L74.53,19.44 L74.47,19.45 L74.43,19.45 L74.06,19.31 L73.68,19.15 L73.31,18.98 L72.92,18.81 L72.73,18.73 L72.34,18.58 L72.14,18.52 L71.94,18.48 L71.55,18.42 L71.34,18.41 L71.19,18.42 L70.90,18.45 L70.61,18.51 L70.34,18.61 L70.20,18.67 L70.07,18.73 L69.83,18.88 L69.60,19.04 L69.39,19.22 L69.30,19.32 L69.21,19.42 L69.04,19.63 L68.89,19.85 L68.76,20.08 L68.70,20.20 L68.65,20.32 L68.57,20.56 L68.51,20.79 L68.48,21.02 L68.48,21.13 L68.48,29.70 L68.48,29.84 L68.52,30.11 L68.58,30.36 L68.67,30.58 L68.73,30.68 L68.80,30.78 L68.94,30.96 L69.11,31.12 L69.29,31.27 L69.38,31.33 L69.59,31.45 L70.02,31.64 L70.25,31.72 L70.72,31.83 L71.18,31.93 L71.60,32.00 L71.99,32.06 L72.16,32.09 L72.44,32.16 L72.54,32.20 L72.59,32.22 L72.66,32.31 L72.71,32.45 L72.74,32.65 L72.74,32.76 L72.74,32.90 L72.71,33.13 L72.66,33.28 L72.59,33.37 L72.54,33.39 L60.83,33.39 L60.78,33.37 L60.71,33.28 L60.66,33.13 L60.63,32.90 L60.63,32.76 L60.63,32.65 L60.66,32.45 L60.71,32.31 L60.78,32.22 L60.83,32.20 L60.97,32.14 L61.35,32.04 L61.58,32.00 L61.82,31.96 L62.31,31.81 L62.55,31.72 L62.67,31.66 L62.90,31.52 L63.11,31.35 L63.31,31.16 L63.40,31.05 L63.49,30.93 L63.63,30.64 L63.72,30.31 L63.77,29.91 L63.77,29.70 L63.77,19.93 L63.77,19.81 L63.73,19.60 L63.67,19.41 L63.57,19.24 L63.50,19.17 L63.44,19.11 L63.29,18.99 L63.12,18.88 L62.94,18.80 L62.84,18.76 L62.63,18.69 L62.20,18.57 L61.97,18.52 L61.51,18.42 L61.07,18.31 L61.01,18.29 L60.92,18.23 L60.88,18.20 L60.85,18.15 L60.81,18.01 L60.81,17.91 L60.81,17.86 L60.84,17.75 L60.87,17.71 L60.91,17.65 L61.03,17.55 L61.11,17.50 L67.83,14.33 Z M77.79,23.91 L77.80,23.68 L77.82,23.20 L77.88,22.74 L77.95,22.27 L78.06,21.82 L78.19,21.37 L78.35,20.92 L78.53,20.48 L78.64,20.26 L78.74,20.04 L78.97,19.62 L79.22,19.21 L79.49,18.81 L79.77,18.42 L80.07,18.05 L80.39,17.69 L80.72,17.34 L80.90,17.17 L81.08,17.01 L81.45,16.69 L81.83,16.39 L82.23,16.11 L82.65,15.84 L83.07,15.59 L83.52,15.36 L83.98,15.14 L84.21,15.04 L84.45,14.95 L84.93,14.77 L85.41,14.62 L85.90,14.50 L86.40,14.40 L86.90,14.33 L87.41,14.28 L87.92,14.25 L88.18,14.25 L88.46,14.25 L89.00,14.28 L89.53,14.32 L90.06,14.39 L90.58,14.49 L91.10,14.61 L91.60,14.75 L92.10,14.91 L92.35,15.00 L92.59,15.10 L93.07,15.30 L93.53,15.53 L93.98,15.77 L94.41,16.02 L94.83,16.30 L95.23,16.59 L95.62,16.90 L95.81,17.06 L95.99,17.23 L96.35,17.57 L96.68,17.92 L97.00,18.30 L97.29,18.68 L97.57,19.08 L97.83,19.50 L98.06,19.93 L98.17,20.15 L98.28,20.37 L98.47,20.82 L98.63,21.28 L98.77,21.76 L98.88,22.24 L98.96,22.73 L99.01,23.23 L99.04,23.73 L99.04,23.99 L99.04,24.26 L99.02,24.77 L98.97,25.28 L98.89,25.78 L98.79,26.27 L98.66,26.76 L98.51,27.23 L98.34,27.69 L98.24,27.92 L98.14,28.15 L97.92,28.59 L97.68,29.01 L97.42,29.42 L97.14,29.81 L96.85,30.19 L96.53,30.56 L96.19,30.91 L96.02,31.08 L95.84,31.24 L95.47,31.56 L95.08,31.86 L94.67,32.14 L94.25,32.40 L93.81,32.64 L93.36,32.87 L92.88,33.08 L92.64,33.18 L92.39,33.27 L91.89,33.43 L91.38,33.58 L90.86,33.70 L90.33,33.79 L89.78,33.86 L89.23,33.91 L88.66,33.93 L88.37,33.94 L88.09,33.93 L87.52,33.91 L86.97,33.86 L86.43,33.79 L85.90,33.69 L85.38,33.57 L84.88,33.42 L84.38,33.25 L84.14,33.16 L83.90,33.06 L83.43,32.84 L82.98,32.61 L82.54,32.37 L82.13,32.10 L81.72,31.82 L81.34,31.51 L80.97,31.19 L80.79,31.03 L80.61,30.86 L80.28,30.50 L79.97,30.14 L79.67,29.75 L79.40,29.36 L79.14,28.94 L78.90,28.52 L78.69,28.08 L78.59,27.85 L78.49,27.62 L78.32,27.16 L78.17,26.68 L78.04,26.20 L77.94,25.71 L77.87,25.21 L77.82,24.70 L77.80,24.18 L77.79,23.91 Z M82.99,22.64 L83.00,23.19 L83.08,24.32 L83.15,24.90 L83.19,25.19 L83.30,25.76 L83.42,26.33 L83.56,26.89 L83.64,27.17 L83.72,27.44 L83.91,27.98 L84.11,28.50 L84.34,29.00 L84.46,29.25 L84.59,29.49 L84.86,29.95 L85.16,30.38 L85.48,30.78 L85.65,30.97 L85.83,31.15 L86.19,31.48 L86.58,31.77 L87.00,32.03 L87.21,32.14 L87.43,32.24 L87.90,32.39 L88.39,32.50 L88.91,32.55 L89.19,32.56 L89.48,32.55 L89.90,32.50 L90.17,32.44 L90.42,32.36 L90.67,32.27 L90.91,32.15 L91.13,32.02 L91.24,31.94 L91.46,31.78 L91.85,31.42 L92.20,31.02 L92.52,30.57 L92.66,30.33 L92.79,30.07 L93.04,29.55 L93.24,28.99 L93.41,28.40 L93.48,28.10 L93.55,27.79 L93.65,27.17 L93.71,26.55 L93.75,25.93 L93.75,25.62 L93.75,25.37 L93.72,24.86 L93.68,24.33 L93.61,23.79 L93.56,23.52 L93.51,23.24 L93.40,22.69 L93.26,22.14 L93.11,21.59 L93.02,21.32 L92.92,21.05 L92.72,20.52 L92.50,20.00 L92.25,19.49 L92.12,19.24 L91.99,19.00 L91.70,18.53 L91.39,18.09 L91.07,17.68 L90.89,17.49 L90.72,17.30 L90.35,16.96 L89.96,16.66 L89.55,16.40 L89.33,16.28 L89.12,16.18 L88.67,16.01 L88.20,15.90 L87.71,15.84 L87.46,15.83 L87.18,15.84 L86.78,15.90 L86.52,15.95 L86.27,16.03 L86.03,16.13 L85.80,16.24 L85.58,16.38 L85.48,16.45 L85.27,16.61 L84.89,16.97 L84.54,17.37 L84.23,17.82 L84.09,18.06 L83.95,18.31 L83.71,18.83 L83.51,19.38 L83.34,19.95 L83.26,20.25 L83.20,20.55 L83.10,21.15 L83.03,21.75 L82.99,22.34 L82.99,22.64 Z M87.48,8.24 L87.45,8.21 L87.40,8.14 L87.40,8.12 L87.40,8.10 L87.45,8.04 L87.48,8.00 L91.80,2.01 L91.90,1.89 L92.09,1.66 L92.29,1.47 L92.48,1.32 L92.58,1.25 L92.67,1.20 L92.86,1.11 L93.05,1.05 L93.24,1.02 L93.33,1.02 L93.48,1.03 L93.77,1.08 L94.03,1.20 L94.26,1.37 L94.37,1.47 L94.47,1.59 L94.63,1.83 L94.73,2.10 L94.78,2.37 L94.79,2.52 L94.78,2.68 L94.74,2.97 L94.65,3.24 L94.52,3.50 L94.43,3.62 L94.25,3.84 L93.87,4.25 L93.67,4.43 L88.21,8.83 L88.12,8.88 L88.07,8.89 L88.01,8.89 L87.98,8.89 L87.96,8.87 L87.93,8.83 L87.48,8.24 Z M113.18,37.09 L113.17,36.98 L113.11,36.76 L112.99,36.55 L112.81,36.36 L112.69,36.26 L112.44,36.07 L111.82,35.67 L111.45,35.47 L110.62,35.04 L109.68,34.57 L109.18,34.31 L108.17,33.75 L107.66,33.44 L107.40,33.27 L106.90,32.93 L106.39,32.56 L105.89,32.17 L105.64,31.96 L105.40,31.75 L104.93,31.29 L104.48,30.80 L104.07,30.28 L103.87,30.00 L103.69,29.72 L103.34,29.12 L103.03,28.47 L102.75,27.79 L102.63,27.43 L102.52,27.06 L102.34,26.29 L102.22,25.46 L102.16,24.59 L102.15,24.14 L102.16,23.90 L102.18,23.43 L102.22,22.97 L102.28,22.51 L102.37,22.06 L102.48,21.61 L102.61,21.17 L102.76,20.73 L102.84,20.51 L103.02,20.08 L103.42,19.27 L103.88,18.51 L104.40,17.80 L104.69,17.47 L104.98,17.15 L105.61,16.56 L106.28,16.04 L107.00,15.58 L107.38,15.38 L107.57,15.28 L107.96,15.11 L108.35,14.97 L108.75,14.84 L109.15,14.74 L109.56,14.67 L109.97,14.62 L110.39,14.60 L110.60,14.59 L116.70,14.59 L116.77,14.60 L116.90,14.63 L117.01,14.69 L117.11,14.77 L117.15,14.83 L117.19,14.89 L117.25,15.08 L117.29,15.32 L117.31,15.64 L117.31,15.82 L117.31,16.67 L117.31,16.75 L117.28,16.91 L117.25,16.98 L117.23,17.01 L117.18,17.06 L117.06,17.11 L116.95,17.11 L116.38,17.11 L115.63,17.11 L114.76,17.10 L113.83,17.09 L112.86,17.09 L111.86,17.08 L110.89,17.07 L109.99,17.07 L109.74,17.08 L109.25,17.15 L108.79,17.31 L108.34,17.54 L108.13,17.68 L107.92,17.84 L107.53,18.19 L107.16,18.58 L106.83,19.03 L106.67,19.26 L106.53,19.51 L106.26,20.03 L106.02,20.57 L105.82,21.14 L105.73,21.44 L105.65,21.74 L105.53,22.33 L105.45,22.93 L105.41,23.52 L105.40,23.81 L105.41,24.09 L105.44,24.65 L105.52,25.21 L105.64,25.77 L105.71,26.04 L105.80,26.32 L105.98,26.87 L106.20,27.41 L106.44,27.93 L106.58,28.19 L106.72,28.44 L107.02,28.93 L107.34,29.41 L107.70,29.87 L107.88,30.09 L108.08,30.31 L108.48,30.72 L108.90,31.10 L109.33,31.46 L109.56,31.62 L110.12,32.02 L110.96,32.55 L111.52,32.88 L111.79,33.03 L112.33,33.32 L113.30,33.89 L113.74,34.18 L113.95,34.32 L114.33,34.62 L114.68,34.92 L114.98,35.24 L115.12,35.40 L115.24,35.56 L115.44,35.92 L115.57,36.32 L115.64,36.75 L115.65,36.98 L115.65,37.10 L115.62,37.35 L115.58,37.59 L115.51,37.84 L115.36,38.20 L115.09,38.69 L114.92,38.94 L114.73,39.18 L114.30,39.65 L113.80,40.11 L113.24,40.54 L112.94,40.74 L112.62,40.95 L111.95,41.33 L111.23,41.67 L110.45,41.99 L110.04,42.13 L109.63,42.27 L108.79,42.50 L107.92,42.69 L107.03,42.82 L106.58,42.87 L106.42,42.86 L106.16,42.83 L105.98,42.77 L105.87,42.68 L105.85,42.63 L105.77,42.37 L105.67,42.06 L105.65,41.96 L105.60,41.74 L105.56,41.30 L105.54,40.94 L105.55,40.82 L105.59,40.63 L105.67,40.50 L105.79,40.44 L105.87,40.43 L106.52,40.43 L106.90,40.42 L107.44,40.37 L107.76,40.34 L108.43,40.24 L108.80,40.17 L109.17,40.09 L109.93,39.91 L110.31,39.79 L110.50,39.73 L110.87,39.60 L111.22,39.45 L111.56,39.28 L111.72,39.18 L111.88,39.09 L112.17,38.88 L112.43,38.66 L112.66,38.42 L112.77,38.29 L112.86,38.16 L113.02,37.88 L113.12,37.58 L113.17,37.26 L113.18,37.09 Z" fill="#F05941" fill-rule="evenodd"/>
</svg>
