<svg xmlns="http://www.w3.org/2000/svg" viewBox="-6.00 -6.00 212.00 54.87" width="212.00mm" height="54.87mm">

<path d="M140.94,32.78 L140.93,32.93 L140.90,33.13 L140.87,33.23 L140.82,33.34 L140.77,33.38 L140.74,33.39 L130.14,33.39 L130.11,33.38 L130.06,33.34 L130.00,33.23 L129.98,33.13 L129.95,32.93 L129.94,32.78 L129.96,32.65 L130.00,32.46 L130.03,32.36 L130.10,32.23 L130.14,32.20 L130.29,32.14 L130.66,32.04 L130.89,32.00 L131.13,31.96 L131.62,31.81 L131.86,31.72 L131.98,31.66 L132.21,31.52 L132.42,31.35 L132.62,31.16 L132.71,31.05 L132.80,30.93 L132.94,30.64 L133.03,30.31 L133.08,29.91 L133.08,29.70 L133.08,6.03 L133.08,5.91 L133.05,5.69 L132.98,5.50 L132.88,5.34 L132.82,5.27 L132.75,5.20 L132.60,5.08 L132.44,4.98 L132.25,4.89 L132.15,4.85 L131.94,4.78 L131.51,4.67 L131.28,4.62 L130.82,4.52 L130.38,4.40 L130.32,4.37 L130.22,4.28 L130.16,4.14 L130.13,3.95 L130.12,3.84 L130.13,3.78 L130.16,3.65 L130.18,3.57 L130.22,3.48 L130.34,3.35 L130.43,3.29 L137.14,0.12 L137.23,0.08 L137.33,0.05 L137.38,0.03 L137.49,0.00 L137.55,0.00 L137.62,0.01 L137.70,0.05 L137.74,0.09 L137.75,0.12 L137.77,0.18 L137.79,0.37 L137.79,0.49 L137.79,29.70 L137.80,29.91 L137.84,30.31 L137.94,30.64 L138.07,30.93 L138.16,31.05 L138.25,31.16 L138.45,31.35 L138.66,31.52 L138.89,31.66 L139.01,31.72 L139.25,31.81 L139.74,31.96 L139.98,32.00 L140.21,32.04 L140.59,32.14 L140.74,32.20 L140.78,32.23 L140.85,32.36 L140.88,32.46 L140.92,32.65 L140.94,32.78 Z M151.53,32.98 L151.36,33.10 L151.00,33.30 L150.60,33.49 L150.17,33.65 L149.95,33.72 L149.72,33.78 L149.27,33.88 L148.81,33.94 L148.35,33.98 L148.12,33.98 L147.82,33.98 L147.24,33.94 L146.69,33.87 L146.19,33.77 L145.71,33.63 L145.28,33.45 L144.88,33.24 L144.52,33.00 L144.36,32.86 L144.20,32.72 L143.92,32.42 L143.68,32.09 L143.48,31.74 L143.32,31.36 L143.20,30.95 L143.12,30.53 L143.08,30.07 L143.07,29.84 L143.08,29.57 L143.14,29.06 L143.26,28.59 L143.45,28.16 L143.57,27.95 L143.70,27.76 L144.01,27.39 L144.38,27.03 L144.80,26.71 L145.04,26.55 L145.29,26.40 L145.83,26.11 L146.43,25.83 L147.09,25.57 L147.44,25.45 L148.19,25.20 L149.85,24.70 L150.76,24.46 L151.24,24.32 L151.87,24.11 L152.23,23.97 L152.39,23.90 L152.99,23.59 L153.54,23.30 L153.70,23.22 L153.86,23.09 L153.92,23.02 L153.94,22.98 L153.96,22.91 L153.99,22.78 L153.99,22.71 L153.99,19.18 L153.99,19.01 L153.96,18.69 L153.91,18.38 L153.84,18.08 L153.79,17.93 L153.74,17.79 L153.63,17.52 L153.48,17.27 L153.31,17.04 L153.22,16.93 L153.12,16.83 L152.91,16.64 L152.67,16.47 L152.42,16.33 L152.28,16.26 L152.14,16.21 L151.85,16.11 L151.54,16.05 L151.22,16.02 L151.05,16.02 L150.90,16.02 L150.62,16.04 L150.34,16.10 L150.08,16.17 L149.95,16.22 L149.83,16.27 L149.59,16.40 L149.37,16.54 L149.17,16.71 L149.08,16.81 L148.99,16.91 L148.83,17.12 L148.68,17.35 L148.56,17.59 L148.50,17.72 L148.45,17.86 L148.37,18.14 L148.32,18.44 L148.29,18.75 L148.29,18.92 L148.29,18.99 L148.29,19.10 L148.31,19.23 L148.33,19.36 L148.35,19.48 L148.36,19.59 L148.38,19.67 L148.39,19.71 L148.36,19.74 L148.19,19.82 L148.05,19.87 L147.70,20.00 L147.28,20.15 L146.80,20.30 L146.27,20.45 L145.74,20.60 L145.23,20.74 L144.76,20.88 L144.36,21.00 L144.04,21.09 L143.84,21.13 L143.79,21.12 L143.70,21.10 L143.63,21.04 L143.58,20.95 L143.57,20.90 L143.55,20.78 L143.52,20.55 L143.52,20.44 L143.52,20.29 L143.54,20.00 L143.59,19.71 L143.66,19.42 L143.74,19.14 L143.85,18.85 L144.06,18.43 L144.23,18.15 L144.41,17.87 L144.83,17.35 L145.30,16.85 L145.83,16.39 L146.12,16.17 L146.43,15.96 L147.06,15.57 L147.75,15.22 L148.47,14.92 L148.85,14.78 L149.24,14.66 L150.03,14.46 L150.82,14.32 L151.63,14.26 L152.04,14.25 L152.40,14.26 L153.09,14.30 L153.75,14.40 L154.36,14.54 L154.66,14.63 L154.94,14.73 L155.48,14.95 L155.97,15.21 L156.42,15.50 L156.63,15.67 L156.82,15.83 L157.18,16.19 L157.49,16.57 L157.75,16.97 L157.87,17.19 L157.97,17.40 L158.13,17.85 L158.24,18.30 L158.29,18.78 L158.30,19.02 L158.30,28.70 L158.30,28.83 L158.35,29.08 L158.45,29.32 L158.59,29.54 L158.69,29.64 L158.79,29.74 L159.02,29.90 L159.27,30.00 L159.56,30.05 L159.71,30.06 L159.89,30.05 L160.22,29.99 L160.37,29.93 L160.52,29.86 L160.78,29.71 L160.90,29.63 L161.12,29.47 L161.30,29.32 L161.38,29.27 L161.52,29.20 L161.58,29.19 L161.62,29.19 L161.68,29.21 L161.73,29.24 L161.76,29.29 L161.76,29.32 L161.78,29.45 L161.78,29.55 L161.78,29.73 L161.73,30.08 L161.69,30.25 L161.67,30.34 L161.61,30.49 L161.53,30.62 L161.43,30.73 L161.38,30.77 L160.44,31.48 L159.61,32.12 L159.23,32.41 L158.53,32.93 L158.21,33.15 L157.90,33.35 L157.34,33.67 L157.07,33.79 L156.95,33.85 L156.70,33.93 L156.46,33.99 L156.23,34.02 L156.12,34.02 L156.02,34.02 L155.83,33.99 L155.65,33.93 L155.48,33.85 L155.40,33.79 L155.25,33.68 L154.98,33.40 L154.85,33.25 L154.74,33.08 L154.54,32.73 L154.46,32.55 L154.31,32.18 L154.18,31.84 L154.09,31.55 L154.01,31.32 L153.98,31.23 L153.93,31.14 L153.91,31.14 L151.53,32.98 Z M147.80,29.35 L147.80,29.48 L147.83,29.73 L147.88,29.96 L147.96,30.16 L148.01,30.25 L148.07,30.33 L148.19,30.48 L148.33,30.61 L148.49,30.73 L148.57,30.77 L148.75,30.86 L149.14,30.98 L149.35,31.03 L149.57,31.06 L150.02,31.09 L150.25,31.10 L150.37,31.09 L150.60,31.07 L151.01,30.98 L151.31,30.88 L151.62,30.77 L152.23,30.49 L152.53,30.32 L152.68,30.23 L152.96,30.04 L153.22,29.83 L153.45,29.62 L153.56,29.51 L153.66,29.39 L153.82,29.16 L153.93,28.93 L153.98,28.69 L153.99,28.58 L153.99,25.23 L153.99,25.18 L153.97,25.09 L153.93,25.04 L153.87,25.01 L153.83,25.01 L153.79,25.01 L153.75,25.03 L149.04,27.22 L148.77,27.42 L148.52,27.60 L148.41,27.69 L148.21,27.89 L148.12,28.00 L148.05,28.12 L147.92,28.40 L147.88,28.55 L147.84,28.72 L147.80,29.12 L147.80,29.35 Z M169.56,0.12 L169.64,0.08 L169.73,0.05 L169.81,0.01 L169.86,0.00 L169.94,0.01 L170.07,0.07 L170.16,0.19 L170.20,0.37 L170.21,0.49 L170.21,15.82 L170.21,15.92 L170.23,16.12 L170.25,16.23 L170.27,16.28 L170.31,16.36 L170.38,16.42 L170.46,16.44 L170.51,16.45 L170.56,16.44 L170.73,16.38 L170.84,16.32 L171.56,15.98 L172.24,15.63 L172.57,15.46 L173.22,15.15 L173.54,15.01 L173.86,14.88 L174.51,14.66 L174.83,14.57 L175.00,14.53 L175.33,14.46 L175.67,14.42 L176.02,14.40 L176.20,14.39 L176.40,14.40 L176.79,14.42 L177.18,14.46 L177.56,14.53 L177.94,14.63 L178.30,14.74 L178.67,14.88 L179.02,15.04 L179.20,15.13 L179.54,15.32 L180.20,15.75 L180.81,16.24 L181.38,16.81 L181.65,17.11 L181.90,17.43 L182.37,18.12 L182.78,18.86 L183.14,19.67 L183.30,20.09 L183.44,20.52 L183.67,21.41 L183.82,22.32 L183.90,23.27 L183.91,23.75 L183.90,24.03 L183.88,24.58 L183.83,25.12 L183.75,25.65 L183.66,26.17 L183.53,26.67 L183.38,27.16 L183.21,27.65 L183.11,27.88 L183.01,28.12 L182.80,28.57 L182.56,29.00 L182.30,29.42 L182.03,29.83 L181.73,30.22 L181.42,30.59 L181.09,30.94 L180.91,31.11 L180.73,31.28 L180.36,31.59 L179.98,31.89 L179.58,32.17 L179.16,32.43 L178.72,32.67 L178.27,32.90 L177.80,33.10 L177.56,33.20 L177.32,33.29 L176.82,33.45 L176.32,33.59 L175.80,33.70 L175.28,33.79 L174.74,33.86 L174.19,33.91 L173.63,33.93 L173.35,33.94 L172.76,33.93 L171.64,33.89 L171.11,33.85 L170.60,33.80 L169.63,33.67 L169.17,33.60 L168.72,33.52 L167.85,33.35 L167.43,33.25 L166.60,33.05 L165.79,32.85 L165.70,32.82 L165.58,32.73 L165.54,32.67 L165.53,32.60 L165.50,32.45 L165.50,32.36 L165.50,5.73 L165.50,5.61 L165.46,5.39 L165.40,5.20 L165.30,5.04 L165.23,4.97 L165.17,4.90 L165.02,4.78 L164.85,4.67 L164.66,4.58 L164.56,4.55 L164.36,4.48 L163.92,4.36 L163.69,4.31 L163.24,4.22 L162.80,4.10 L162.74,4.08 L162.64,4.02 L162.60,3.99 L162.57,3.94 L162.54,3.80 L162.54,3.70 L162.54,3.64 L162.57,3.54 L162.60,3.49 L162.63,3.44 L162.75,3.34 L162.84,3.29 L169.56,0.12 Z M170.45,18.15 L170.38,18.20 L170.27,18.31 L170.25,18.36 L170.23,18.42 L170.21,18.56 L170.21,18.63 L170.21,28.44 L170.24,28.67 L170.31,29.13 L170.42,29.55 L170.55,29.95 L170.70,30.31 L170.89,30.65 L171.10,30.96 L171.33,31.24 L171.46,31.36 L171.60,31.48 L171.89,31.70 L172.20,31.89 L172.53,32.04 L172.89,32.17 L173.27,32.26 L173.68,32.32 L174.10,32.35 L174.33,32.36 L174.68,32.35 L175.35,32.28 L175.82,32.18 L176.11,32.09 L176.38,31.98 L176.64,31.86 L176.76,31.79 L177.00,31.64 L177.44,31.30 L177.83,30.91 L178.18,30.45 L178.33,30.21 L178.48,29.95 L178.74,29.39 L178.95,28.80 L179.12,28.16 L179.19,27.82 L179.25,27.47 L179.35,26.75 L179.41,26.01 L179.44,25.23 L179.44,24.82 L179.44,24.43 L179.41,23.67 L179.35,22.93 L179.26,22.22 L179.20,21.88 L179.13,21.54 L178.96,20.90 L178.74,20.30 L178.48,19.74 L178.33,19.48 L178.16,19.23 L177.79,18.77 L177.36,18.36 L176.88,18.01 L176.62,17.85 L176.48,17.78 L176.20,17.65 L175.89,17.54 L175.57,17.45 L175.22,17.37 L174.86,17.32 L174.29,17.27 L173.88,17.26 L173.61,17.26 L173.12,17.28 L172.90,17.30 L172.68,17.32 L172.27,17.38 L172.07,17.43 L171.88,17.48 L171.49,17.61 L171.30,17.70 L170.90,17.90 L170.45,18.15 Z M190.14,33.27 L190.05,33.27 L189.89,33.33 L189.82,33.37 L189.67,33.48 L189.54,33.61 L189.41,33.73 L189.28,33.83 L189.22,33.88 L189.08,33.93 L189.00,33.94 L188.27,33.94 L188.25,33.90 L188.19,33.61 L188.15,33.35 L188.07,32.70 L187.98,31.94 L187.89,31.10 L187.82,30.23 L187.80,29.81 L187.77,29.07 L187.76,28.76 L187.77,28.68 L187.80,28.55 L187.85,28.45 L187.94,28.37 L188.00,28.34 L188.12,28.30 L188.37,28.26 L188.50,28.25 L188.57,28.26 L188.72,28.31 L188.81,28.36 L188.90,28.41 L189.06,28.54 L189.13,28.61 L189.28,28.76 L189.41,28.92 L189.51,29.07 L189.59,29.21 L189.76,29.58 L190.10,30.26 L190.28,30.57 L190.37,30.72 L190.55,31.00 L190.75,31.26 L190.96,31.49 L191.07,31.60 L191.18,31.71 L191.43,31.90 L191.69,32.06 L191.98,32.21 L192.13,32.27 L192.28,32.32 L192.62,32.41 L192.99,32.46 L193.38,32.49 L193.59,32.49 L193.75,32.49 L194.04,32.46 L194.30,32.41 L194.54,32.33 L194.64,32.27 L194.74,32.22 L194.92,32.09 L195.08,31.94 L195.21,31.78 L195.27,31.69 L195.33,31.59 L195.42,31.40 L195.49,31.19 L195.55,30.97 L195.57,30.85 L195.60,30.61 L195.64,30.13 L195.64,29.88 L195.63,29.63 L195.58,29.27 L195.53,29.05 L195.45,28.84 L195.35,28.63 L195.24,28.44 L195.11,28.25 L195.03,28.16 L194.87,27.99 L194.53,27.65 L194.15,27.32 L193.74,27.01 L193.52,26.86 L193.06,26.55 L192.07,25.93 L191.55,25.62 L191.29,25.46 L190.77,25.12 L190.28,24.75 L189.81,24.36 L189.58,24.15 L189.36,23.94 L188.95,23.49 L188.57,22.99 L188.23,22.46 L188.07,22.18 L187.99,22.03 L187.86,21.73 L187.75,21.41 L187.65,21.07 L187.58,20.72 L187.52,20.34 L187.47,19.76 L187.46,19.34 L187.47,19.10 L187.54,18.62 L187.70,18.14 L187.93,17.68 L188.07,17.45 L188.23,17.22 L188.58,16.78 L188.97,16.38 L189.42,16.00 L189.65,15.82 L189.90,15.64 L190.42,15.32 L190.96,15.04 L191.54,14.79 L191.84,14.68 L192.14,14.58 L192.74,14.42 L193.34,14.31 L193.94,14.26 L194.24,14.25 L194.55,14.26 L195.19,14.31 L195.51,14.36 L195.82,14.42 L196.41,14.54 L196.68,14.61 L196.94,14.69 L197.40,14.83 L197.60,14.90 L197.91,15.02 L198.08,15.10 L198.14,15.16 L198.26,15.32 L198.30,15.42 L198.35,15.54 L198.41,15.88 L198.43,16.10 L198.45,16.64 L198.47,17.35 L198.48,18.25 L198.48,19.39 L198.48,19.47 L198.44,19.62 L198.38,19.74 L198.29,19.85 L198.23,19.89 L198.10,19.95 L197.85,20.03 L197.73,20.04 L197.62,20.03 L197.40,19.99 L197.29,19.96 L197.19,19.91 L197.08,19.82 L197.04,19.74 L197.02,19.69 L196.89,19.38 L196.62,18.74 L196.47,18.43 L196.31,18.11 L195.96,17.53 L195.77,17.26 L195.67,17.14 L195.46,16.90 L195.22,16.70 L194.97,16.51 L194.84,16.43 L194.71,16.36 L194.43,16.24 L194.12,16.16 L193.80,16.13 L193.63,16.12 L193.43,16.13 L193.02,16.18 L192.82,16.22 L192.72,16.25 L192.53,16.32 L192.34,16.42 L192.17,16.54 L192.09,16.61 L192.01,16.69 L191.86,16.86 L191.73,17.07 L191.62,17.29 L191.57,17.42 L191.52,17.55 L191.45,17.84 L191.40,18.16 L191.38,18.52 L191.37,18.72 L191.38,18.89 L191.46,19.22 L191.62,19.54 L191.86,19.85 L192.01,20.00 L192.18,20.14 L192.54,20.44 L193.15,20.88 L193.61,21.18 L194.61,21.80 L195.69,22.47 L195.97,22.65 L196.51,23.02 L197.03,23.41 L197.53,23.84 L197.77,24.06 L198.01,24.28 L198.44,24.76 L198.84,25.28 L199.20,25.83 L199.36,26.12 L199.44,26.26 L199.58,26.57 L199.70,26.88 L199.80,27.21 L199.88,27.56 L199.94,27.91 L199.99,28.47 L200.00,28.86 L199.99,29.15 L199.91,29.71 L199.76,30.24 L199.53,30.75 L199.39,30.99 L199.23,31.22 L198.89,31.65 L198.50,32.05 L198.06,32.41 L197.83,32.58 L197.59,32.74 L197.08,33.02 L196.55,33.27 L196.00,33.49 L195.71,33.58 L195.42,33.66 L194.84,33.80 L194.27,33.89 L193.71,33.93 L193.43,33.94 L193.14,33.93 L192.57,33.88 L192.28,33.83 L192.01,33.78 L191.49,33.67 L191.25,33.61 L190.83,33.48 L190.48,33.37 L190.25,33.29 L190.14,33.27 Z" fill="#EAE0D5" fill-rule="evenodd"/>
</svg>
